<?xml version="1.0" standalone="no"?>
<!DOCTYPE svg PUBLIC "-//W3C//DTD SVG 20010904//EN"
 "http://www.w3.org/TR/2001/REC-SVG-20010904/DTD/svg10.dtd">
<svg version="1.0" xmlns="http://www.w3.org/2000/svg"
 width="120.000000pt" height="120.000000pt" viewBox="0 0 120.000000 120.000000"
 preserveAspectRatio="xMidYMid meet">

<g transform="translate(0.000000,120.000000) scale(0.100000,-0.100000)"
fill="#000000" stroke="none">
<path d="M902 1192 l-102 -3 19 -37 c10 -20 16 -42 14 -48 -2 -7 16 -29 41
-49 25 -21 44 -41 41 -45 -2 -4 -23 -10 -46 -14 -68 -11 -76 -20 -108 -119
-28 -89 -29 -94 -16 -152 8 -32 12 -61 10 -63 -2 -3 -40 -7 -85 -11 l-80 -6
-98 -87 c-87 -77 -101 -94 -120 -146 l-22 -59 -82 -12 c-46 -6 -97 -14 -114
-17 -29 -5 -33 -2 -58 42 -15 26 -29 58 -32 71 -4 15 -13 23 -29 23 -21 0 -22
-4 -29 -118 -8 -135 2 -198 41 -254 39 -58 94 -79 205 -80 118 0 861 51 870
61 4 4 24 207 44 451 40 490 39 531 -11 596 -48 63 -106 80 -253 76z"/>
<path d="M598 1159 c-187 -44 -455 -290 -528 -485 -34 -92 -29 -110 44 -183
l64 -64 49 12 c71 18 169 73 261 147 161 129 282 312 290 439 5 76 -11 109
-63 131 -38 16 -62 16 -117 3z"/>
</g>
</svg>
